<?xml version="1.0" standalone="no"?>
<!DOCTYPE svg PUBLIC "-//W3C//DTD SVG 20010904//EN"
 "http://www.w3.org/TR/2001/REC-SVG-20010904/DTD/svg10.dtd">
<svg version="1.0" xmlns="http://www.w3.org/2000/svg"
 width="225.000000pt" height="224.000000pt" viewBox="0 0 225.000000 224.000000"
 preserveAspectRatio="xMidYMid meet">

<g transform="translate(0.000000,224.000000) scale(0.100000,-0.100000)"
fill="#000000" stroke="none">
<path d="M885 2100 c-290 -65 -535 -259 -665 -525 -80 -164 -95 -230 -95 -430
0 -135 4 -184 19 -240 160 -593 784 -900 1351 -664 216 90 402 270 505 493 67
143 84 227 84 411 -1 130 -5 174 -22 236 -50 184 -140 336 -274 465 -140 134
-312 224 -496 260 -103 20 -307 17 -407 -6z m-308 -795 c135 -40 195 -205 116
-320 -35 -50 -119 -95 -178 -95 -128 0 -236 135 -206 257 20 79 68 130 149
159 48 17 58 17 119 -1z m243 -205 c0 -127 -4 -200 -10 -200 -6 0 -10 73 -10
200 0 127 4 200 10 200 6 0 10 -73 10 -200z m203 181 c30 -12 44 -46 27 -66
-9 -11 -9 -18 4 -30 44 -44 -7 -85 -105 -85 l-49 0 0 95 0 95 49 0 c27 0 61
-4 74 -9z m207 -16 c24 -22 26 -62 4 -86 -15 -17 -15 -20 0 -43 21 -32 20 -36
-3 -36 -11 0 -29 13 -41 30 -25 35 -43 35 -50 0 -3 -17 -12 -25 -25 -25 -18 0
-20 8 -23 94 l-3 93 60 -4 c40 -3 67 -11 81 -23z m90 -70 c0 -88 -1 -95 -20
-95 -19 0 -20 7 -20 95 0 88 1 95 20 95 19 0 20 -7 20 -95z m165 81 c38 -16
55 -42 55 -83 0 -59 -52 -93 -142 -93 l-38 0 0 95 0 95 45 0 c25 0 61 -6 80
-14z m223 -2 c19 -13 21 -19 11 -30 -8 -10 -15 -12 -23 -4 -15 15 -62 12 -80
-6 -36 -35 -7 -98 43 -92 20 2 27 9 29 31 2 19 9 27 23 27 15 0 19 -7 19 -38
0 -32 -5 -41 -25 -50 -71 -32 -156 16 -155 86 2 70 100 117 158 76z m192 -4
c0 -17 -7 -20 -51 -20 -43 0 -50 -3 -47 -17 2 -13 15 -19 46 -21 28 -2 42 -8
42 -18 0 -10 -12 -14 -45 -14 -38 0 -45 -3 -45 -20 0 -17 7 -20 50 -20 43 0
50 -3 50 -20 0 -18 -7 -20 -70 -20 l-70 0 0 95 0 95 70 0 c63 0 70 -2 70 -20z
m-967 -247 l14 -26 18 26 c25 39 35 33 35 -18 0 -25 -4 -45 -10 -45 -5 0 -10
10 -10 23 -1 22 -1 22 -16 2 -15 -20 -15 -20 -30 -1 -14 19 -14 19 -14 -2 0
-12 -4 -22 -10 -22 -5 0 -10 20 -10 45 0 51 13 58 33 18z m107 -18 c0 -25 -4
-45 -10 -45 -5 0 -10 20 -10 45 0 25 5 45 10 45 6 0 10 -20 10 -45z m59 18
l20 -28 1 28 c0 15 5 27 10 27 6 0 10 -20 10 -45 0 -51 -10 -56 -39 -19 l-21
27 0 -27 c0 -14 -4 -26 -10 -26 -5 0 -10 20 -10 45 0 52 10 56 39 18z m81 -18
c0 -25 -4 -45 -10 -45 -5 0 -10 20 -10 45 0 25 5 45 10 45 6 0 10 -20 10 -45z
m80 36 c0 -5 -10 -11 -22 -14 -22 -3 -22 -4 5 -15 15 -6 27 -15 27 -20 0 -15
-24 -32 -47 -32 -33 0 -29 20 5 21 l27 1 -27 11 c-26 10 -37 35 -21 50 10 10
53 8 53 -2z m90 -1 c0 -5 -7 -10 -15 -10 -10 0 -15 -11 -15 -35 0 -19 -4 -35
-10 -35 -5 0 -10 16 -10 35 0 24 -5 35 -15 35 -8 0 -15 5 -15 10 0 6 18 10 40
10 22 0 40 -4 40 -10z m67 2 c11 -7 14 -82 3 -82 -4 0 -12 6 -18 12 -10 10
-15 10 -22 -2 -15 -24 -28 1 -23 43 4 30 9 37 27 37 11 0 26 -4 33 -8z m53
-37 c0 -25 -4 -45 -10 -45 -5 0 -10 20 -10 45 0 25 5 45 10 45 6 0 10 -20 10
-45z m80 35 c0 -5 -9 -10 -20 -10 -28 0 -25 -20 3 -21 l22 -2 -22 -4 c-31 -6
-29 -23 2 -23 14 0 25 -4 25 -10 0 -5 -16 -10 -35 -10 -35 0 -35 0 -35 45 0
43 1 45 30 45 17 0 30 -4 30 -10z m80 1 c0 -5 -10 -11 -22 -14 -22 -3 -22 -4
5 -15 39 -16 33 -46 -11 -50 -18 -2 -32 1 -32 7 0 6 12 11 28 12 l27 1 -27 11
c-26 10 -37 35 -21 50 10 10 53 8 53 -2z m80 -36 c0 -33 -4 -45 -15 -45 -11 0
-15 11 -15 38 0 21 3 42 7 45 16 16 23 4 23 -38z m58 18 c13 -16 21 -23 18
-16 -7 14 3 43 15 43 5 0 9 -20 9 -45 0 -25 -3 -45 -7 -45 -4 0 -17 10 -30 22
l-23 21 0 -21 c0 -12 -4 -22 -10 -22 -5 0 -10 20 -10 45 0 25 3 45 7 45 4 0
18 -12 31 -27z m122 17 c0 -5 -4 -10 -10 -10 -5 0 -10 -16 -10 -35 0 -24 -5
-35 -15 -35 -10 0 -15 11 -15 35 0 19 -4 35 -10 35 -5 0 -10 5 -10 10 0 6 16
10 35 10 19 0 35 -4 35 -10z m30 -71 c0 -5 -7 -9 -15 -9 -15 0 -20 12 -9 23 8
8 24 -1 24 -14z m-970 -80 c0 -6 -4 -7 -10 -4 -5 3 -10 0 -10 -7 0 -9 -3 -9
-10 2 -8 12 -10 12 -10 1 0 -8 -3 -12 -6 -8 -10 10 3 23 25 24 12 1 21 -3 21
-8z m90 1 c0 -5 -2 -10 -4 -10 -3 0 -8 5 -11 10 -3 6 -1 10 4 10 6 0 11 -4 11
-10z m115 -8 c4 -12 3 -13 -10 -2 -12 10 -15 10 -16 -1 0 -10 -2 -11 -6 -1 -2
6 -9 10 -14 6 -5 -3 -9 -1 -9 4 0 16 48 11 55 -6z m33 -7 c-3 -3 -9 2 -12 12
-6 14 -5 15 5 6 7 -7 10 -15 7 -18z m42 15 c0 -5 -5 -10 -11 -10 -5 0 -7 5 -4
10 3 6 8 10 11 10 2 0 4 -4 4 -10z m25 0 c3 -5 1 -10 -4 -10 -6 0 -11 5 -11
10 0 6 2 10 4 10 3 0 8 -4 11 -10z m22 -12 c-3 -8 -6 -5 -6 6 -1 11 2 17 5 13
3 -3 4 -12 1 -19z m51 -3 c-3 -3 -9 2 -12 12 -6 14 -5 15 5 6 7 -7 10 -15 7
-18z m52 10 c0 -2 -9 -3 -19 -2 -11 0 -18 5 -15 9 4 6 34 0 34 -7z m50 0 c11
-13 10 -14 -4 -9 -9 3 -16 10 -16 15 0 13 6 11 20 -6z m67 -7 c-3 -8 -6 -5 -6
6 -1 11 2 17 5 13 3 -3 4 -12 1 -19z m88 -7 c-6 -5 -25 10 -25 20 0 5 6 4 14
-3 8 -7 12 -15 11 -17z m45 23 c0 -8 -19 -13 -24 -6 -3 5 1 9 9 9 8 0 15 -2
15 -3z"/>
<path d="M396 1219 c13 -14 15 -31 12 -69 -3 -27 -1 -50 3 -50 5 0 9 25 9 54
l0 55 30 -10 c26 -10 30 -16 30 -49 0 -21 -6 -41 -12 -43 -8 -3 -6 -6 5 -6 14
-1 17 7 17 43 0 43 1 44 28 37 21 -6 27 -13 27 -36 0 -22 -6 -31 -25 -36 l-25
-7 28 -1 c15 -1 30 -1 34 -1 4 0 6 16 4 35 -2 32 0 35 24 35 25 0 26 -3 23
-37 -2 -22 1 -37 7 -35 6 1 9 18 7 37 -3 28 0 35 14 35 9 0 14 3 11 7 -4 3
-25 6 -47 5 -22 -1 -40 2 -40 7 0 4 -12 6 -27 3 -18 -3 -30 1 -40 13 -7 11
-13 13 -13 6 0 -14 -39 -6 -55 13 -5 6 -18 12 -28 12 -17 2 -17 1 -1 -17z"/>
<path d="M592 1064 c-34 -23 -28 -37 13 -30 28 6 35 4 35 -9 0 -24 -43 -18
-122 15 -38 17 -83 30 -98 30 -58 0 -84 -70 -34 -92 29 -13 57 -2 62 25 3 14
-2 16 -27 11 -20 -4 -31 -3 -31 5 0 24 33 22 108 -7 107 -42 116 -44 146 -31
46 21 29 99 -21 99 -5 0 -19 -7 -31 -16z"/>
<path d="M940 1229 c0 -17 5 -20 32 -17 22 2 34 9 36 21 3 14 -4 17 -32 17
-30 0 -36 -4 -36 -21z"/>
<path d="M940 1161 c0 -18 6 -21 41 -21 33 0 40 3 37 18 -2 12 -14 18 -41 20
-32 3 -37 0 -37 -17z"/>
<path d="M1138 1220 c3 -24 9 -30 28 -30 28 0 49 31 32 48 -7 7 -24 12 -38 12
-24 0 -26 -3 -22 -30z"/>
<path d="M1400 1195 c0 -54 1 -55 28 -55 39 0 65 21 65 53 0 38 -20 57 -59 57
l-34 0 0 -55z"/>
<path d="M1380 1014 c0 -17 22 -14 28 4 2 7 -3 12 -12 12 -9 0 -16 -7 -16 -16z"/>
</g>
</svg>
